<?xml version="1.0" encoding="UTF-8"?>
<svg xmlns="http://www.w3.org/2000/svg" xmlns:xlink="http://www.w3.org/1999/xlink" width="16px" height="16px" viewBox="0 0 16 16" version="1.1">
<g id="surface1">
<path style=" stroke:none;fill-rule:nonzero;fill:rgb(0%,0%,0%);fill-opacity:1;" d="M 8 15.3125 C 7.800781 15.3125 7.625 15.136719 7.625 14.9375 L 7.625 8.375 L 1.050781 8.375 C 0.851562 8.375 0.675781 8.199219 0.675781 8 C 0.675781 7.800781 0.835938 7.625 1.050781 7.625 L 7.625 7.625 L 7.625 1.050781 C 7.625 0.851562 7.800781 0.675781 8 0.675781 C 8.199219 0.675781 8.375 0.835938 8.375 1.050781 L 8.375 7.625 L 14.9375 7.625 C 15.136719 7.625 15.3125 7.800781 15.3125 8 C 15.3125 8.199219 15.148438 8.375 14.9375 8.375 L 8.375 8.375 L 8.375 14.9375 C 8.375 15.136719 8.199219 15.3125 8 15.3125 Z M 8 15.3125 "/>
</g>
</svg>
