<?xml version="1.0" encoding="UTF-8"?>
<svg xmlns="http://www.w3.org/2000/svg" xmlns:xlink="http://www.w3.org/1999/xlink" width="16px" height="16px" viewBox="0 0 16 16" version="1.1">
<g id="surface1">
<path style=" stroke:none;fill-rule:evenodd;fill:rgb(0%,0%,0%);fill-opacity:1;" d="M 4.117188 5.335938 L 1.796875 12.757812 L 2.648438 13.023438 L 4.769531 6.226562 L 14.863281 6.226562 L 13.335938 13.867188 C 13.296875 14.074219 13.113281 14.226562 12.902344 14.226562 L 1.332031 14.226562 C 1.089844 14.226562 0.890625 14.027344 0.890625 13.78125 L 0.890625 1.78125 L 4.675781 1.78125 L 6.105469 3.558594 L 12.445312 3.558594 L 12.445312 4.445312 L 13.332031 4.445312 L 13.332031 2.667969 L 6.53125 2.667969 L 5.101562 0.890625 L 0 0.890625 L 0 13.78125 C 0 14.515625 0.597656 15.113281 1.332031 15.113281 L 12.902344 15.113281 C 13.535156 15.113281 14.085938 14.664062 14.207031 14.042969 L 15.949219 5.335938 Z M 4.117188 5.335938 "/>
</g>
</svg>
