<?xml version="1.0" encoding="UTF-8"?>
<svg xmlns="http://www.w3.org/2000/svg" xmlns:xlink="http://www.w3.org/1999/xlink" width="16px" height="16px" viewBox="0 0 16 16" version="1.1">
<g id="surface1">
<path style=" stroke:none;fill-rule:evenodd;fill:rgb(0%,0%,0%);fill-opacity:1;" d="M 9.007812 3.007812 C 9.007812 3.558594 8.558594 4.007812 8.007812 4.007812 C 7.453125 4.007812 7.007812 3.558594 7.007812 3.007812 C 7.007812 2.453125 7.453125 2.007812 8.007812 2.007812 C 8.558594 2.007812 9.007812 2.453125 9.007812 3.007812 Z M 9.007812 3.007812 "/>
<path style=" stroke:none;fill-rule:evenodd;fill:rgb(0%,0%,0%);fill-opacity:1;" d="M 9.007812 13.007812 C 9.007812 13.558594 8.558594 14.007812 8.007812 14.007812 C 7.453125 14.007812 7.007812 13.558594 7.007812 13.007812 C 7.007812 12.453125 7.453125 12.007812 8.007812 12.007812 C 8.558594 12.007812 9.007812 12.453125 9.007812 13.007812 Z M 9.007812 13.007812 "/>
<path style=" stroke:none;fill-rule:evenodd;fill:rgb(0%,0%,0%);fill-opacity:1;" d="M 9.007812 8.007812 C 9.007812 8.558594 8.558594 9.007812 8.007812 9.007812 C 7.453125 9.007812 7.007812 8.558594 7.007812 8.007812 C 7.007812 7.453125 7.453125 7.007812 8.007812 7.007812 C 8.558594 7.007812 9.007812 7.453125 9.007812 8.007812 Z M 9.007812 8.007812 "/>
</g>
</svg>
