<?xml version="1.0" encoding="UTF-8"?>
<svg xmlns="http://www.w3.org/2000/svg" xmlns:xlink="http://www.w3.org/1999/xlink" width="16px" height="16px" viewBox="0 0 16 16" version="1.1">
<g id="surface1">
<path style=" stroke:none;fill-rule:nonzero;fill:rgb(0%,0%,0%);fill-opacity:1;" d="M 3.703125 13.980469 C 3.238281 13.964844 2.796875 13.765625 2.484375 13.421875 C 2.167969 13.078125 2.007812 12.621094 2.035156 12.160156 C 2.027344 10.722656 2.035156 9.289062 2.035156 7.851562 C 2.035156 7.667969 2.183594 7.519531 2.367188 7.519531 C 2.550781 7.519531 2.703125 7.667969 2.703125 7.851562 C 2.703125 9.320312 2.679688 10.785156 2.703125 12.253906 C 2.710938 12.992188 3.265625 13.3125 3.925781 13.3125 L 12.234375 13.3125 C 12.664062 13.324219 13.054688 13.066406 13.214844 12.667969 C 13.28125 12.4375 13.304688 12.195312 13.285156 11.960938 L 13.285156 7.851562 C 13.285156 7.667969 13.433594 7.519531 13.617188 7.519531 C 13.800781 7.519531 13.949219 7.667969 13.949219 7.851562 C 13.949219 9.335938 14.007812 10.828125 13.949219 12.3125 C 13.9375 12.769531 13.742188 13.203125 13.410156 13.515625 C 13.074219 13.828125 12.628906 13.996094 12.171875 13.976562 Z M 3.703125 13.980469 "/>
<path style=" stroke:none;fill-rule:nonzero;fill:rgb(0%,0%,0%);fill-opacity:1;" d="M 8.226562 2.117188 C 8.171875 2.0625 8.097656 2.027344 8.015625 2.023438 C 8.007812 2.023438 8 2.023438 7.988281 2.019531 C 7.980469 2.015625 7.96875 2.019531 7.960938 2.023438 C 7.882812 2.027344 7.808594 2.0625 7.753906 2.117188 L 5.308594 4.5625 C 5.179688 4.695312 5.183594 4.902344 5.3125 5.03125 C 5.441406 5.160156 5.648438 5.160156 5.777344 5.035156 L 7.65625 3.15625 L 7.65625 10.320312 C 7.65625 10.503906 7.804688 10.652344 7.988281 10.652344 C 8.171875 10.652344 8.324219 10.503906 8.324219 10.320312 L 8.324219 3.15625 L 10.199219 5.035156 C 10.332031 5.160156 10.539062 5.160156 10.667969 5.03125 C 10.796875 4.902344 10.796875 4.695312 10.671875 4.5625 Z M 8.226562 2.117188 "/>
</g>
</svg>
