<?xml version="1.0" encoding="UTF-8"?>
<svg xmlns="http://www.w3.org/2000/svg" xmlns:xlink="http://www.w3.org/1999/xlink" width="16px" height="16px" viewBox="0 0 16 16" version="1.1">
<g id="surface1">
<path style=" stroke:none;fill-rule:nonzero;fill:rgb(0%,0%,0%);fill-opacity:1;" d="M 12.964844 2.707031 L 10.179688 2.707031 L 10.179688 2.375 C 10.179688 1.820312 9.730469 1.375 9.179688 1.375 L 6.820312 1.375 C 6.269531 1.375 5.820312 1.820312 5.820312 2.375 L 5.820312 2.707031 L 3.035156 2.707031 C 2.847656 2.707031 2.699219 2.855469 2.699219 3.039062 C 2.699219 3.222656 2.847656 3.375 3.035156 3.375 L 3.511719 3.375 L 3.792969 13.007812 C 3.816406 13.910156 4.554688 14.628906 5.460938 14.625 L 10.539062 14.625 C 11.445312 14.628906 12.183594 13.910156 12.207031 13.007812 L 12.488281 3.375 L 12.964844 3.375 C 13.152344 3.375 13.300781 3.222656 13.300781 3.039062 C 13.300781 2.855469 13.152344 2.707031 12.964844 2.707031 Z M 6.488281 2.375 C 6.488281 2.1875 6.636719 2.039062 6.820312 2.039062 L 9.179688 2.039062 C 9.363281 2.039062 9.511719 2.1875 9.511719 2.375 L 9.511719 2.707031 L 6.488281 2.707031 Z M 11.539062 12.988281 C 11.527344 13.527344 11.082031 13.960938 10.539062 13.960938 L 5.460938 13.960938 C 4.917969 13.960938 4.472656 13.527344 4.460938 12.988281 L 4.171875 3.375 L 11.828125 3.375 Z M 11.539062 12.988281 "/>
<path style=" stroke:none;fill-rule:nonzero;fill:rgb(0%,0%,0%);fill-opacity:1;" d="M 5.582031 5.332031 C 5.582031 5.148438 5.734375 5 5.917969 5 C 6.101562 5 6.25 5.148438 6.25 5.332031 L 6.417969 12 C 6.417969 12.183594 6.265625 12.332031 6.082031 12.332031 C 5.898438 12.332031 5.75 12.183594 5.75 12 Z M 5.582031 5.332031 "/>
<path style=" stroke:none;fill-rule:nonzero;fill:rgb(0%,0%,0%);fill-opacity:1;" d="M 10.417969 5.339844 C 10.417969 5.152344 10.265625 5.003906 10.082031 5.003906 C 9.898438 5.003906 9.75 5.152344 9.75 5.339844 L 9.582031 12.003906 C 9.582031 12.1875 9.734375 12.339844 9.917969 12.339844 C 10.101562 12.339844 10.25 12.1875 10.25 12.003906 Z M 10.417969 5.339844 "/>
</g>
</svg>
